<?xml version="1.0" encoding="utf-8"?>
<!-- Generator: Adobe Illustrator 18.1.1, SVG Export Plug-In . SVG Version: 6.00 Build 0)  -->
<svg version="1.1" xmlns="http://www.w3.org/2000/svg" xmlns:xlink="http://www.w3.org/1999/xlink" x="0px" y="0px" width="512px"
	 height="512px" viewBox="0 0 512 512" enable-background="new 0 0 512 512" xml:space="preserve">
<g id="rest">
</g>
<g id="Student">
</g>
<g id="Staff">
</g>
<g id="Group">
</g>
<g id="Assignmentresult">
</g>
<g id="CoursePA">
</g>
<g id="CourseScience">
</g>
<g id="Material">
</g>
<g id="Badges">
</g>
<g id="Unlock">
</g>
<g id="Notification">
</g>
<g id="Calendar">
</g>
<g id="GroupStandard">
</g>
<g id="Video">
</g>
<g id="Filter">
</g>
<g id="Organogram">
</g>
<g id="Folder">
</g>
<g id="Notes_1_">
</g>
<g id="Pending">
</g>
<g id="Attendance">
</g>
<g id="Audio">
</g>
<g id="Store">
</g>
<g id="Time">
</g>
<g id="CloudOnline">
</g>
<g id="Safe">
</g>
<g id="Direction">
</g>
<g id="Classroom">
</g>
<g id="Writing">
</g>
<g id="Reading">
</g>
<g id="Chat">
</g>
<g id="View">
</g>
<g id="Hide">
</g>
<g id="PersonNoAccess">
</g>
<g id="PersonPending">
</g>
<g id="PersonRejected">
</g>
<g id="PersonAccepted">
</g>
<g id="PersonDetails">
</g>
<g id="Users">
</g>
<g id="Subjects">
</g>
<g id="EduCoach">
</g>
<g id="Identity">
</g>
<g id="Sharing">
</g>
<g id="Settings">
</g>
<g id="ShareLesson">
</g>
<g id="Institute">
</g>
<g id="Globe">
</g>
<g id="Facebook">
</g>
<g id="GooglePlus">
	<g>
		<g>
			<path fill="#DC432A" d="M512,256c0,141.4-114.6,256-256,256C114.6,512,0,397.4,0,256C0,114.6,114.6,0,256,0
				C397.4,0,512,114.6,512,256z"/>
			<path fill="#FFFFFF" d="M246.6,268.4c-7.9-6.2-25.8-20.2-1.1-42.8c24.8-22.6,35.5-28.7,35.5-61.7c0-33-23-51.3-30.9-57.8
				l27.3,0.4L304,90.7H203.1c-34.8,0-95.6,26.8-93.7,81.5c2.5,70,72.9,68.9,72.9,68.9l14.4-1.4c0,0-5,8.5-5,16.6
				c0,8.1,2.5,18.5,13.3,30c0,0-113.5-1.5-117,72.5c-2.6,53.5,70.4,62.5,94.4,62.5c5,0,109.5,3.2,113.4-83.3
				C297.3,303.5,254.4,274.6,246.6,268.4z M169.6,212.8c-25-31.5-21-64.7-20.3-72.2c0.7-7.5,7.4-34.8,41.2-35.3
				c7.9-0.1,33.3,6.5,45.3,42.2c14.8,44.1,2.6,63.8-3.6,69.9C224.9,224.6,192.9,242.1,169.6,212.8z M201.7,403.5
				c-6.5-0.2-75.4-2.2-75.4-53.1c0-57.4,93.3-51.5,93.3-51.5c17.1,12.9,47.4,29.6,47.4,56.5C266.9,403.7,208.1,403.7,201.7,403.5z"
				/>
			<polygon fill="#FFFFFF" points="418.5,138.7 370.5,138.7 370.5,90.7 352.3,90.7 352.3,138.7 304.3,138.7 304.3,157 352.3,157 
				352.3,205 370.5,205 370.5,157 418.5,157 			"/>
		</g>
	</g>
</g>
<g id="OpenID">
</g>
<g id="Windows">
</g>
<g id="FacebookGrey">
</g>
<g id="GoogleplusGrey">
</g>
<g id="TwitterGrey">
</g>
<g id="LinkedinGrey">
</g>
<g id="InstagramGrey">
</g>
<g id="LearningPlan">
</g>
<g id="EduPassport">
</g>
<g id="Add">
</g>
<g id="Remove">
</g>
<g id="Back">
</g>
<g id="Rating">
</g>
<g id="Schedule">
</g>
<g id="Health">
</g>
<g id="Search">
</g>
<g id="Arrow">
</g>
<g id="MailMessage">
</g>
<g id="Lock">
</g>
<g id="CloudOffline">
</g>
<g id="Pin">
</g>
<g id="Remark">
</g>
<g id="Accept">
</g>
<g id="GroupRemediation">
</g>
<g id="Star">
</g>
<g id="Reject">
</g>
<g id="Up">
</g>
<g id="Help">
</g>
<g id="Home">
</g>
<g id="Goal">
</g>
<g id="GroupExtra">
</g>
<g id="Homework">
</g>
<g id="Absent">
</g>
<g id="SeatingChart">
</g>
<g id="Assignments">
</g>
<g id="ForgotBooks">
</g>
<g id="ForgotHomework">
</g>
<g id="Done">
</g>
<g id="Favourite">
</g>
<g id="CourseGeography">
</g>
<g id="CourseMusic">
</g>
<g id="CourseHistory">
</g>
<g id="CourseMathematics">
</g>
<g id="CourseBiology">
</g>
<g id="CourseEnglish">
</g>
<g id="CourseEconomics">
</g>
<g id="Curriculum">
</g>
<g id="Dictionary">
</g>
<g id="Workspace">
</g>
<g id="Bookmark">
</g>
<g id="Application">
</g>
<g id="NoPhoto">
</g>
<g id="CloudLocked">
</g>
</svg>
