<?xml version="1.0" encoding="utf-8"?>
<!-- Generator: Adobe Illustrator 18.1.1, SVG Export Plug-In . SVG Version: 6.00 Build 0)  -->
<svg version="1.1" xmlns="http://www.w3.org/2000/svg" xmlns:xlink="http://www.w3.org/1999/xlink" x="0px" y="0px" width="512px"
	 height="512px" viewBox="0 0 512 512" enable-background="new 0 0 512 512" xml:space="preserve">
<g id="rest">
</g>
<g id="Student">
</g>
<g id="Staff">
</g>
<g id="Group">
</g>
<g id="Assignmentresult">
</g>
<g id="CoursePA">
</g>
<g id="CourseScience">
</g>
<g id="Material">
</g>
<g id="Badges">
</g>
<g id="Unlock">
</g>
<g id="Notification">
</g>
<g id="Calendar">
</g>
<g id="GroupStandard">
</g>
<g id="Video">
</g>
<g id="Filter">
</g>
<g id="Organogram">
</g>
<g id="Folder">
</g>
<g id="Notes_1_">
</g>
<g id="Pending">
</g>
<g id="Attendance">
</g>
<g id="Audio">
</g>
<g id="Store">
</g>
<g id="Time">
</g>
<g id="CloudOnline">
</g>
<g id="Safe">
</g>
<g id="Direction">
</g>
<g id="Classroom">
</g>
<g id="Writing">
</g>
<g id="Reading">
</g>
<g id="Chat">
</g>
<g id="View">
</g>
<g id="Hide">
</g>
<g id="PersonNoAccess">
</g>
<g id="PersonPending">
</g>
<g id="PersonRejected">
</g>
<g id="PersonAccepted">
</g>
<g id="PersonDetails">
</g>
<g id="Users">
</g>
<g id="Subjects">
</g>
<g id="EduCoach">
</g>
<g id="Identity">
</g>
<g id="Sharing">
</g>
<g id="Settings">
</g>
<g id="ShareLesson">
</g>
<g id="Institute">
</g>
<g id="Globe">
</g>
<g id="Facebook">
</g>
<g id="GooglePlus">
</g>
<g id="OpenID">
</g>
<g id="Windows">
	<g>
		<g>
			<path fill="#338ACA" d="M512,256c0,141.4-114.6,256-256,256C114.6,512,0,397.4,0,256C0,114.6,114.6,0,256,0
				C397.4,0,512,114.6,512,256z"/>
			<g>
				<path fill="#FFFFFF" d="M262,277L232.6,379c49.1,49,126.4-3.3,126.4-3.3l24.8-93.9c-18.3,7.3-40.3,13-62.5,13
					C300.8,294.8,280.1,289.9,262,277z"/>
				<path fill="#FFFFFF" d="M392.4,249.5l29-109.5c0,0-72.8,49.2-122,7.3l-29.5,102.6C310.2,290.2,375.6,258.7,392.4,249.5z"/>
				<path fill="#FFFFFF" d="M129.7,248.7l-29.3,110.9c0,0,63.7-30.5,112.1,1.6l29.3-101.7C203.8,228.4,151,241.5,129.7,248.7z"/>
				<path fill="#FFFFFF" d="M249.4,233.1l30.1-104.5c-48.9-37.3-116.7-4.8-116.7-4.8l-25.5,96.6
					C165.9,213.3,211.2,208.7,249.4,233.1z"/>
			</g>
		</g>
	</g>
</g>
<g id="FacebookGrey">
</g>
<g id="GoogleplusGrey">
</g>
<g id="TwitterGrey">
</g>
<g id="LinkedinGrey">
</g>
<g id="InstagramGrey">
</g>
<g id="LearningPlan">
</g>
<g id="EduPassport">
</g>
<g id="Add">
</g>
<g id="Remove">
</g>
<g id="Back">
</g>
<g id="Rating">
</g>
<g id="Schedule">
</g>
<g id="Health">
</g>
<g id="Search">
</g>
<g id="Arrow">
</g>
<g id="MailMessage">
</g>
<g id="Lock">
</g>
<g id="CloudOffline">
</g>
<g id="Pin">
</g>
<g id="Remark">
</g>
<g id="Accept">
</g>
<g id="GroupRemediation">
</g>
<g id="Star">
</g>
<g id="Reject">
</g>
<g id="Up">
</g>
<g id="Help">
</g>
<g id="Home">
</g>
<g id="Goal">
</g>
<g id="GroupExtra">
</g>
<g id="Homework">
</g>
<g id="Absent">
</g>
<g id="SeatingChart">
</g>
<g id="Assignments">
</g>
<g id="ForgotBooks">
</g>
<g id="ForgotHomework">
</g>
<g id="Done">
</g>
<g id="Favourite">
</g>
<g id="CourseGeography">
</g>
<g id="CourseMusic">
</g>
<g id="CourseHistory">
</g>
<g id="CourseMathematics">
</g>
<g id="CourseBiology">
</g>
<g id="CourseEnglish">
</g>
<g id="CourseEconomics">
</g>
<g id="Curriculum">
</g>
<g id="Dictionary">
</g>
<g id="Workspace">
</g>
<g id="Bookmark">
</g>
<g id="Application">
</g>
<g id="NoPhoto">
</g>
<g id="CloudLocked">
</g>
</svg>
